Coordinates
version=1
nRows=7
nColumns=40
inDegrees=yes

Units are S.I. units (second, meters, Newtons, ...)
If the header above contains a line with 'inDegrees', this indicates whether rotational values are in degrees (yes) or radians (no).

endheader
time	pelvis_tilt	pelvis_list	pelvis_rotation	pelvis_tx	pelvis_ty	pelvis_tz	hip_flexion_r	hip_adduction_r	hip_rotation_r	knee_angle_r	knee_angle_r_beta	ankle_angle_r	subtalar_angle_r	mtp_angle_r	hip_flexion_l	hip_adduction_l	hip_rotation_l	knee_angle_l	knee_angle_l_beta	ankle_angle_l	subtalar_angle_l	mtp_angle_l	lumbar_extension	lumbar_bending	lumbar_rotation	arm_flex_r	arm_add_r	arm_rot_r	elbow_flex_r	pro_sup_r	wrist_flex_r	wrist_dev_r	arm_flex_l	arm_add_l	arm_rot_l	elbow_flex_l	pro_sup_l	wrist_flex_l	wrist_dev_l
     11.67500000	    -26.55193841	     -1.09255761	      4.71224154	     -0.31047603	      1.19329953	      0.04934423	     73.44893917	     -8.17714724	     -0.73425666	     52.49766160	      0.91625704	    -14.26373134	    -26.85889137	      0.00000000	     75.02358158	     -4.20925837	      6.70445923	     90.66624806	      1.58242455	     -0.36651959	    -11.11334493	      0.00000000	    -48.35341154	      6.07554094	     -2.78921099	     89.89438213	     -6.91658640	     13.92431202	     31.42553501	     85.68703931	      0.00000000	      0.00000000	     89.94045603	     -7.93649763	     21.77521561	     27.40944567	     78.97688718	      0.00000000	      0.00000000
     11.68333333	    -26.40450717	     -0.87993937	      4.82811221	     -0.30983343	      1.19337319	      0.04898527	     72.12435322	     -8.34675943	     -0.70650077	     50.74404718	      0.88565070	    -15.28469831	    -26.29920663	      0.00000000	     75.84343631	     -3.90537663	      6.75361372	     92.29225253	      1.61080368	      0.22645241	    -11.10495377	      0.00000000	    -48.47440389	      5.95545149	     -3.05008202	     89.89183605	     -6.92205230	     13.99432245	     31.24832395	     85.65068666	      0.00000000	      0.00000000	     89.94096240	     -7.95945784	     21.96834628	     27.42043908	     79.00310309	      0.00000000	      0.00000000
     11.69166667	    -26.20126697	     -1.44293727	      4.78477208	     -0.30913535	      1.19343893	      0.04940679	     70.59752002	     -7.99938947	     -1.46235975	     48.87893659	      0.85309838	    -16.55339909	    -25.91575582	      0.00000000	     76.82580607	     -4.16321298	      7.55698402	     93.98046508	      1.64026855	      0.86352777	     -9.96164182	      0.00000000	    -48.66853701	      6.27589510	     -2.55533352	     89.89041533	     -7.04847134	     14.15308238	     31.25116326	     85.46831914	      0.00000000	      0.00000000	     89.94088462	     -7.92377141	     22.28149337	     27.47180956	     78.81094093	      0.00000000	      0.00000000
     11.70000000	    -26.08250712	     -1.10994301	      4.94687525	     -0.30854225	      1.19351202	      0.04897062	     69.35853797	     -8.30065249	     -1.40215073	     47.27068537	      0.82502910	    -17.60222203	    -25.30354382	      0.00000000	     77.64514128	     -3.80647542	      7.42978199	     95.44307695	      1.66579594	      1.25727560	     -9.85870907	      0.00000000	    -48.75486913	      6.09742306	     -2.91688917	     89.88775913	     -7.06680730	     14.22825665	     31.05671371	     85.45227671	      0.00000000	      0.00000000	     89.94131072	     -7.93330917	     22.48035438	     27.48493131	     78.82628568	      0.00000000	      0.00000000
     11.70833333	    -26.11469721	     -0.80199986	      5.05741769	     -0.30822649	      1.19361727	      0.04872170	     68.12483954	     -8.46569935	     -1.20818964	     45.44470648	      0.79315976	    -18.41010407	    -24.78440335	      0.00000000	     78.61907088	     -3.46673059	      7.35760399	     96.78777370	      1.68926533	      1.66265447	     -9.76031524	      0.00000000	    -48.70951781	      5.86555461	     -3.25109056	     89.88652194	     -7.08692699	     14.28519130	     30.87991882	     85.43386313	      0.00000000	      0.00000000	     89.94168901	     -7.92372629	     22.64089770	     27.47708437	     78.83685562	      0.00000000	      0.00000000
     11.71666667	    -26.18701661	     -0.55733693	      5.16578493	     -0.30797151	      1.19380995	      0.04834226	     66.99997424	     -8.66485580	     -1.18609873	     43.71976938	      0.76305392	    -19.51569710	    -24.16762077	      0.00000000	     79.54568564	     -3.07037414	      7.36582392	     97.98405679	      1.71014441	      2.32955681	     -9.62284357	      0.00000000	    -48.65584956	      5.71156116	     -3.53355445	     89.88282820	     -7.11384985	     14.36525488	     30.77474106	     85.41613509	      0.00000000	      0.00000000	     89.94228448	     -7.95877992	     22.80305642	     27.54149127	     78.84115977	      0.00000000	      0.00000000
     11.72500000	    -26.07218413	     -1.15050811	      5.20696665	     -0.30744216	      1.19377870	      0.04870588	     65.54443532	     -8.30920207	     -1.98255764	     41.93607878	      0.73192265	    -20.86208091	    -23.81484056	      0.00000000	     80.73529975	     -3.22775890	      8.21585574	     99.48170205	      1.73628325	      2.89168665	     -8.17170196	      0.00000000	    -48.73862140	      6.11059601	     -3.09592474	     89.87958378	     -7.24098428	     14.65779961	     30.75185511	     85.26543300	      0.00000000	      0.00000000	     89.94210895	     -7.96736702	     23.21643741	     27.54246301	     78.47466733	      0.00000000	      0.00000000
